<svg width="30" height="30" viewBox="0 0 30 30" fill="none" xmlns="http://www.w3.org/2000/svg">
<path d="M23.75 3.75H6.25C4.86875 3.75 3.75 4.86875 3.75 6.25V23.75C3.75 25.1313 4.86875 26.25 6.25 26.25H23.75C25.1313 26.25 26.25 25.1313 26.25 23.75V6.25C26.25 4.86875 25.1313 3.75 23.75 3.75ZM21.3125 11.8925C21.3125 12 21.3125 12.1063 21.3125 12.3213C21.3125 16.3925 18.205 21.1075 12.5262 21.1075C10.8125 21.1075 9.205 20.5713 7.8125 19.715C8.02625 19.715 8.34875 19.715 8.5625 19.715C9.955 19.715 11.3487 19.1788 12.42 18.4288C11.0275 18.4288 9.95625 17.465 9.5275 16.2863C9.74125 16.2863 9.95625 16.3937 10.0637 16.3937C10.385 16.3937 10.6 16.3938 10.9213 16.2863C9.52875 15.965 8.4575 14.7863 8.4575 13.2862C8.88625 13.5 9.315 13.6075 9.85 13.715C8.9925 12.965 8.4575 12.1075 8.4575 11.0363C8.4575 10.5 8.565 9.965 8.88625 9.53625C10.3863 11.3575 12.6363 12.6438 15.2075 12.75C15.2075 12.5363 15.1 12.3213 15.1 12C15.1 10.2863 16.4925 8.8925 18.2075 8.8925C19.065 8.8925 19.9212 9.21375 20.4575 9.85625C21.2075 9.74875 21.85 9.4275 22.3862 9.10625C22.1725 9.85625 21.6362 10.3925 20.9937 10.82C21.6362 10.7125 22.1725 10.6063 22.815 10.2838C22.3838 10.9288 21.8487 11.4637 21.3125 11.8925Z" fill="white"/>
</svg>
